<?xml version="1.0" standalone="no"?><!DOCTYPE svg PUBLIC "-//W3C//DTD SVG 1.1//EN" "http://www.w3.org/Graphics/SVG/1.1/DTD/svg11.dtd"><svg t="1525699667580" class="icon" style="" viewBox="0 0 1024 1024" version="1.1" xmlns="http://www.w3.org/2000/svg" p-id="22324" xmlns:xlink="http://www.w3.org/1999/xlink" width="48" height="48"><defs><style type="text/css"></style></defs><path d="M439.2 727.2c-40 36.8-78.4 53.6-114.4 49.6-48.8-4.8-79.2-45.6-79.2-46.4-7.2-9.6-20.8-12-31.2-5.6-10.4 7.2-12.8 20.8-5.6 30.4 1.6 2.4 41.6 57.6 110.4 64.8 4.8 0.8 9.6 0.8 15.2 0.8 44.8 0 90.4-20.8 135.2-61.6 8.8-8 9.6-22.4 1.6-31.2-8.8-8.8-22.4-9.6-32-0.8z m467.2-544c-2.4-9.6-6.4-18.4-12-26.4-16-21.6-42.4-33.6-71.2-33.6-23.2 0-44.8 9.6-61.6 26.4-16.8 16.8-25.6 40-24.8 63.2 0 11.2 3.2 22.4 7.2 32.8l-88.8 88-12.8-12c-7.2-7.2-18.4-8-27.2-3.2-0.8 0-65.6 39.2-132.8 42.4-16.8 0.8-36 0-56.8-1.6-19.2-0.8-38.4-2.4-59.2-2.4-29.6 0-56.8 2.4-81.6 7.2-36.8 5.6-72 16.8-103.2 35.2 0 0-1.6 0.8-2.4 0.8-1.6 0.8-2.4 1.6-3.2 2.4C89.6 454.4 35.2 548.8 35.2 649.6c0 159.2 130.4 289.6 291.2 289.6 68 0 133.6-23.2 185.6-66.4 0.8 0 0.8-0.8 1.6-0.8 5.6-4 10.4-8.8 16-14.4 1.6-1.6 3.2-3.2 5.6-4.8 111.2-112 231.2-376 236-387.2 4-8.8 1.6-18.4-4.8-24.8l-2.4-1.6 88.8-88c11.2 4.8 24 7.2 36 6.4 23.2-0.8 45.6-10.4 61.6-27.2 16-16.8 24.8-39.2 24-62.4 0-43.2-28.8-76-68-84.8z m-403.2 637.6l-4.8 4.8c-4 4-8 8-12 11.2-0.8 0-0.8 0.8-1.6 0.8-44.8 36.8-100.8 57.6-158.4 57.6-136 0-247.2-109.6-247.2-244.8 0-86.4 46.4-167.2 122.4-211.2 0.8 0 0.8-0.8 1.6-0.8h0.8c27.2-15.2 56.8-25.6 88.8-30.4 22.4-4 47.2-6.4 74.4-6.4 20 0 38.4 0.8 56.8 2.4 21.6 0.8 41.6 2.4 60.8 1.6 58.4-2.4 112.8-27.2 139.2-40l101.6 96c-27.2 55.2-130.4 267.2-222.4 359.2z m416-522.4c-8 8.8-19.2 13.6-30.4 13.6-8.8 0-18.4-2.4-26.4-8-8.8-6.4-20.8-4.8-28 2.4L732.8 407.2l-45.6-43.2 100.8-98.4c8-8 8.8-20 2.4-28.8-5.6-7.2-8.8-16-8.8-24.8 0-12 4-23.2 12-32 8-8 18.4-12.8 30.4-12.8 13.6 0 27.2 5.6 34.4 16 8.8 12 9.6 28.8 2.4 49.6-4 11.2 2.4 24 13.6 28 12 4 24-2.4 28-13.6l4.8-16.8c14.4 7.2 24 21.6 24 37.6 0 11.2-4 21.6-12 30.4z" p-id="22325" fill="#e6e6e6"></path></svg>