<?xml version="1.0" standalone="no"?><!DOCTYPE svg PUBLIC "-//W3C//DTD SVG 1.1//EN" "http://www.w3.org/Graphics/SVG/1.1/DTD/svg11.dtd"><svg t="1525701783871" class="icon" style="" viewBox="0 0 1024 1024" version="1.1" xmlns="http://www.w3.org/2000/svg" p-id="23071" xmlns:xlink="http://www.w3.org/1999/xlink" width="48" height="48"><defs><style type="text/css"></style></defs><path d="M512.5 897c-18 0-34.4-9.7-43.1-25.3l-43.1-65.5-0.4-0.7c-6.4-11.3-18.4-18.3-31.4-18.3H204.3c-4.6 0-9.2-0.5-13.6-1.4-4.4-0.9-8.7-2.2-12.8-4-4-1.7-7.9-3.8-11.5-6.3-3.6-2.4-7-5.2-10-8.3-3.1-3.1-5.8-6.4-8.3-10-2.4-3.6-4.6-7.5-6.3-11.5-1.7-4.1-3.1-8.4-4-12.8-0.9-4.5-1.4-9.1-1.4-13.6V259c0-4.6 0.5-9.2 1.4-13.6 0.9-4.4 2.2-8.7 4-12.8 1.7-4 3.8-7.9 6.3-11.5 2.4-3.6 5.2-7 8.3-10s6.4-5.8 10-8.3c3.6-2.5 7.5-4.6 11.5-6.3 4.1-1.7 8.4-3.1 12.8-4 4.5-0.9 9.1-1.4 13.6-1.4h616.4c4.6 0 9.2 0.5 13.6 1.4 4.4 0.9 8.7 2.2 12.8 4 4 1.7 7.9 3.8 11.5 6.3 3.6 2.4 7 5.2 10 8.3 3.1 3.1 5.8 6.4 8.3 10 2.5 3.6 4.6 7.5 6.3 11.5 1.7 4.1 3.1 8.4 4 12.8 0.9 4.5 1.4 9.1 1.4 13.6v460.4c0 4.6-0.5 9.2-1.4 13.6-0.9 4.4-2.2 8.7-4 12.8-1.7 4-3.8 7.9-6.3 11.5-2.4 3.6-5.2 7-8.3 10s-6.4 5.8-10 8.3c-3.6 2.5-7.5 4.6-11.5 6.3-4.1 1.7-8.4 3.1-12.8 4-4.5 0.9-9.1 1.4-13.6 1.4H631.3c-12.9 0-24.9 6.9-31.3 18.1l-0.4 0.7-44 65.8c-8.8 15.5-25.1 25.1-43.1 25.1zM469 780.1l43.5 66.1 0.8-1.2 43.8-65.4c15.4-26.1 43.8-42.3 74.2-42.3h189.4c1.2 0 2.4-0.1 3.6-0.4 1.1-0.2 2.2-0.6 3.3-1 1.1-0.4 2.1-1 3-1.6 0.9-0.6 1.8-1.4 2.7-2.2 0.8-0.8 1.6-1.7 2.2-2.7 0.6-1 1.2-2 1.6-3 0.5-1.1 0.8-2.2 1-3.3 0.2-1.2 0.4-2.4 0.4-3.6V259c0-1.2-0.1-2.4-0.4-3.6-0.2-1.1-0.6-2.2-1-3.3-0.4-1-1-2.1-1.6-3-0.6-0.9-1.4-1.8-2.2-2.7-0.8-0.8-1.7-1.5-2.7-2.2-0.9-0.6-2-1.2-3-1.6-1.1-0.4-2.2-0.8-3.3-1-1.2-0.2-2.4-0.4-3.6-0.4H204.3c-1.2 0-2.4 0.1-3.6 0.4-1.1 0.2-2.2 0.6-3.3 1-1 0.4-2.1 1-3 1.6-0.9 0.6-1.8 1.4-2.7 2.2s-1.5 1.7-2.2 2.7-1.2 2-1.6 3c-0.4 1.1-0.8 2.2-1 3.3-0.2 1.2-0.4 2.4-0.4 3.6v460.4c0 1.2 0.1 2.4 0.4 3.6 0.2 1.1 0.6 2.2 1 3.3 0.4 1.1 1 2.1 1.6 3 0.6 0.9 1.4 1.8 2.2 2.7 0.8 0.8 1.7 1.5 2.7 2.2 0.9 0.6 2 1.2 3 1.6 1.1 0.5 2.2 0.8 3.3 1 1.2 0.2 2.4 0.4 3.6 0.4h190.2c30.7 0 59.1 16.4 74.5 42.9z" p-id="23072" fill="#e6e6e6"></path><path d="M325.2 512.3m-43.7 0a43.7 43.7 0 1 0 87.4 0 43.7 43.7 0 1 0-87.4 0Z" p-id="23073" fill="#e6e6e6"></path><path d="M512.5 512.3m-43.7 0a43.7 43.7 0 1 0 87.4 0 43.7 43.7 0 1 0-87.4 0Z" p-id="23074" fill="#e6e6e6"></path><path d="M699.9 512.3m-43.7 0a43.7 43.7 0 1 0 87.4 0 43.7 43.7 0 1 0-87.4 0Z" p-id="23075" fill="#e6e6e6"></path></svg>