<?xml version="1.0" standalone="no"?><!DOCTYPE svg PUBLIC "-//W3C//DTD SVG 1.1//EN" "http://www.w3.org/Graphics/SVG/1.1/DTD/svg11.dtd"><svg t="1525696594721" class="icon" style="" viewBox="0 0 1024 1024" version="1.1" xmlns="http://www.w3.org/2000/svg" p-id="5574" xmlns:xlink="http://www.w3.org/1999/xlink" width="48" height="48"><defs><style type="text/css"></style></defs><path d="M376.745527 39.120996l0 179.553399-29.629831 0L323.410807 35.68985l-13.331633 0-23.704888 182.984544-29.629831 0L256.744455 39.120996c-37.821397 25.564235-66.666352 157.470451-66.666352 316.78797l3.703345 0c0.121773 44.48926 30.284747 84.029812 76.296687 100.680027l0 120.809483c-3.315512 29.197996-6.650467 60.184731-10.058077 92.282776-17.839297 172.186617 7.964392 316.475861 56.725956 317.0264 48.762587-0.550539 74.567299-144.836713 56.723909-317.0264-3.403516-32.101115-6.740518-63.09399-10.05603-92.296079L363.413893 456.588993c46.010917-16.650215 76.174913-56.190767 76.295664-100.680027l3.705392 0C443.413925 196.591447 414.566924 64.685231 376.745527 39.120996zM824.311005 668.925029c-3.364631-32.17991-6.6607-63.24544-9.937326-92.517113L814.373679 67.811432c0-57.31845-171.249269-103.173824-171.249269 470.00863l79.038124 0 0 38.601156c-3.275603 29.268604-6.571672 60.33004-9.936303 92.504834-17.623379 172.59594 7.869225 317.227991 56.041364 317.780577C816.44485 986.15302 841.939501 841.523015 824.311005 668.925029z" p-id="5575" fill="#e6e6e6"></path></svg>