<?xml version="1.0" standalone="no"?><!DOCTYPE svg PUBLIC "-//W3C//DTD SVG 1.1//EN" "http://www.w3.org/Graphics/SVG/1.1/DTD/svg11.dtd"><svg t="1525696424930" class="icon" style="" viewBox="0 0 1117 1024" version="1.1" xmlns="http://www.w3.org/2000/svg" p-id="2558" xmlns:xlink="http://www.w3.org/1999/xlink" width="52.359375" height="48"><defs><style type="text/css"></style></defs><path d="M12.660364 168.432485l380.307394-0.434424c6.516364-0.372364 11.170909-3.165091 12.753454-9.650425l35.002182-114.812121c14.553212-29.696 36.615758-45.769697 69.725091-42.077091L759.994182 0l-0.124121 48.934788-236.544 0.775757c-16.446061 2.141091-27.523879 10.364121-33.140364 24.731152l-23.148606 78.103273c-2.668606 11.170909 0.155152 16.259879 8.626424 15.328969l79.561697 0.031031-44.125091 743.548121H62.339879L12.660364 168.432485zM128.496485 1009.570909l889.204363-4.313212c64.822303-6.950788 95.573333 7.074909 99.390061-69.259636l-1117.090909 4.344242c1.241212 69.818182 54.551273 67.956364 128.465455 69.228606z m515.10303-99.172848l351.666424-2.265213c64.853333-6.981818 76.924121-41.518545 80.771879-117.85309l-514.07903 0.620606c-2.792727 74.907152 10.022788 109.661091 81.671757 119.497697z m-25.910303-295.936c-40.649697 2.916848-66.715152 23.303758-69.414788 71.773091 3.413333 46.979879 31.092364 65.194667 69.725091 70.407757a86.078061 86.078061 0 0 0 52.441212-22.093576c15.949576 13.218909 33.140364 20.914424 54.365091 22.341819 20.014545 0.124121 36.274424-5.12 47.13503-18.121697 9.929697 11.636364 25.910303 17.656242 48.531394 17.47006 22.745212-0.03103 40.96-7.323152 50.889697-17.252848 12.536242 12.660364 29.199515 18.245818 48.624485 18.990545a105.472 105.472 0 0 0 46.514424-18.121697c15.949576 14.832485 35.002182 19.269818 55.916607 17.34594 45.242182-9.805576 64.418909-36.957091 61.905454-78.568728-6.702545-44.900848-31.340606-62.557091-66.435879-64.201697-19.704242-2.358303-37.298424 5.616485-53.775515 19.39394-13.187879-14.180848-29.882182-19.983515-50.14497-17.37697-16.073697-3.382303-31.526788 3.196121-46.545454 16.601212-9.898667-11.046788-24.824242-16.508121-43.876849-17.625212-15.546182-0.775758-33.978182 4.002909-47.476363 17.066667-1.675636 1.613576-3.258182 1.210182-4.499394 0.465454-13.963636-15.235879-31.868121-19.114667-52.099879-19.021576-19.673212-0.186182-35.002182 8.440242-47.228121 23.179637-16.35297-17.718303-34.536727-25.289697-54.551273-22.652121z m56.816485-157.230546c-77.668848 8.316121-115.122424 49.989818-112.329697 124.928h512.775758c-3.847758-76.334545-38.167273-117.915152-102.989576-124.928h-297.456485zM67.490909 226.924606l7.074909 140.567273c2.265212 7.19903 6.733576 11.264 14.584243 10.581333l248.149333-2.792727a11.077818 11.077818 0 0 0 11.170909-8.005818l37.236364-137.526303c-0.775758-5.08897-3.009939-8.533333-7.912728-8.936728l-303.010909 0.372364c-4.344242 0.062061-6.826667 2.01697-7.292121 5.740606z m428.559515 140.25697l7.074909-137.122909c-2.234182-7.168-4.251152-9.371152-10.736485-9.060849l-36.864-0.744727a11.170909 11.170909 0 0 0-11.232969 8.067879l-38.291394 136.533333c0.775758 5.182061 2.978909 8.564364 7.850667 8.998788l74.876121-0.837818c4.406303-0.062061 6.826667-2.048 7.323151-5.802667z" fill="#e6e6e6" p-id="2559"></path></svg>