<?xml version="1.0" standalone="no"?><!DOCTYPE svg PUBLIC "-//W3C//DTD SVG 1.1//EN" "http://www.w3.org/Graphics/SVG/1.1/DTD/svg11.dtd"><svg t="1525697669543" class="icon" style="" viewBox="0 0 1024 1024" version="1.1" xmlns="http://www.w3.org/2000/svg" p-id="9387" xmlns:xlink="http://www.w3.org/1999/xlink" width="48" height="48"><defs><style type="text/css"></style></defs><path d="M209.404587 575.402667c-66.914987-6.0928-124.040533-29.498027-157.87008-90.54208-24.58624-44.393813-33.634987-92.514987-18.62656-142.404267 16.370347-54.449493 49.739093-95.44704 102.853973-117.643947 52.48-21.937493 104.912213-18.31936 156.01664 5.19168 44.98432-92.361387 119.43936-140.212907 221.108907-141.550933 103.205547-1.338027 174.066347 52.739413 222.972586 140.56448 4.38272-1.754453 8.93952-3.816107 13.673814-5.474987 40.321707-14.24384 81.16224-18.978133 122.883413-6.72768 30.54592 8.96 55.657813 26.361173 76.690773 49.98144 18.711893 21.036373 33.437013 44.83072 43.383467 71.0144 4.645547 12.209493 6.488747 25.98912 6.970027 39.15776 1.491627 38.126933-5.829973 74.653013-24.3712 108.42112-21.951147 40.011093-55.52128 65.536-98.904747 78.574934-17.619627 5.30432-35.587413 8.05888-53.8624 9.202346-1.184427 0.064853-2.321067 0.259413-4.031147 0.4608v121.43616H209.404587v-119.661226zM817.281707 758.36416v124.699307c0 28.054187-26.292907 54.95808-54.29248 55.657813-1.887573 0.047787-3.730773 0.047787-5.57056 0.047787-162.587307 0-325.1712-0.262827-487.714134 0.218453-30.129493 0.085333-52.872533-18.62656-59.163306-48.428373a56.910507 56.910507 0 0 1-1.160534-11.567787c-0.088747-38.045013-0.044373-76.079787-0.044373-114.158933v-6.468267h607.945387z" p-id="9388" fill="#e6e6e6"></path></svg>