<?xml version="1.0" standalone="no"?><!DOCTYPE svg PUBLIC "-//W3C//DTD SVG 1.1//EN" "http://www.w3.org/Graphics/SVG/1.1/DTD/svg11.dtd"><svg t="1525697953946" class="icon" style="" viewBox="0 0 1024 1024" version="1.1" xmlns="http://www.w3.org/2000/svg" p-id="18224" xmlns:xlink="http://www.w3.org/1999/xlink" width="48" height="48"><defs><style type="text/css"></style></defs><path d="M192 64l64 0 0 192-64 0 0-192Z" p-id="18225" fill="#e6e6e6"></path><path d="M384 0l64 0 0 256-64 0 0-256Z" p-id="18226" fill="#e6e6e6"></path><path d="M576 64l64 0 0 192-64 0 0-192Z" p-id="18227" fill="#e6e6e6"></path><path d="M1005.824 462.784c-23.424-60.032-73.344-102.272-136.896-115.712-13.376-2.816-26.304-4.608-38.912-5.632l0.704-7.488C831.424 326.464 825.536 320 817.984 320L14.016 320C6.464 320 0.576 326.464 1.28 333.952l30.848 339.52c12.032 132.032 90.368 242.304 199.68 302.144L256 1024l320 0 24.192-48.448c53.12-29.056 98.432-69.824 132.672-119.744 4.16-2.048 8.448-4.16 12.352-6.016 73.408-35.456 164.672-79.552 220.864-158.464C1019.008 617.024 1033.472 533.696 1005.824 462.784zM192 704 128 704 128 448l64 0L192 704zM882.688 632c-21.824 30.656-54.4 55.488-89.472 76.8 2.176-11.776 5.504-23.168 6.592-35.328l20.864-229.76c8.768 0.576 17.728 1.664 27.008 3.584 29.184 6.144 52.032 25.408 62.656 52.736C925.312 538.176 915.2 586.304 882.688 632z" p-id="18228" fill="#e6e6e6"></path></svg>