<?xml version="1.0" standalone="no"?><!DOCTYPE svg PUBLIC "-//W3C//DTD SVG 1.1//EN" "http://www.w3.org/Graphics/SVG/1.1/DTD/svg11.dtd"><svg t="1525724091342" class="icon" style="" viewBox="0 0 1236 1024" version="1.1" xmlns="http://www.w3.org/2000/svg" p-id="27127" xmlns:xlink="http://www.w3.org/1999/xlink" width="57.9375" height="48"><defs><style type="text/css"></style></defs><path d="M811.613942 903.259174h-706.775566s70.677557-358.453008 247.371448-420.178074a453.632118 453.632118 0 0 1 341.60819-74.211435s235.591856 61.842862 329.828598 234.88508c0 0 94.236742 234.88508 70.677557 259.151041h-282.710227z" fill="#e6e6e6" p-id="27128"></path><path d="M889.830438 401.684114a20.378696 20.378696 0 1 0 34.160819-22.145635c-0.58898-0.942367-63.256413-100.36213-10.130449-168.212585 29.448982-37.459105 34.514207-84.695272 14.842286-136.52548A247.371448 247.371448 0 0 0 891.832969 10.248246a20.378696 20.378696 0 0 0-31.215921 26.0329c0.942367 1.177959 70.677557 86.933395 21.321063 149.954216-70.677557 90.702864 4.711837 210.383527 8.010123 215.448752zM1026.473714 401.684114A20.378696 20.378696 0 0 0 1060.16335 379.538479c-0.58898-0.942367-63.256413-100.36213-10.13045-168.212585 29.448982-37.459105 34.514207-84.695272 14.842287-136.52548A247.371448 247.371448 0 0 0 1028.358449 10.248246a20.378696 20.378696 0 0 0-31.215921 26.0329c0.706776 0.824571 70.677557 86.815599 21.321063 149.954216-70.677557 90.702864 4.711837 210.383527 8.010123 215.448752zM171.746463 411.107788a20.378696 20.378696 0 1 0 34.160819-22.381226c-0.58898-0.942367-63.256413-100.36213-10.13045-168.212585 29.448982-37.459105 34.514207-84.695272 14.842287-136.525481a247.371448 247.371448 0 0 0-36.987921-64.669964 20.378696 20.378696 0 0 0-31.215921 26.0329c0.706776 0.824571 70.677557 86.815599 21.321063 149.954216-70.677557 90.702864 4.711837 210.383527 8.010123 215.448752zM308.389739 411.107788a20.378696 20.378696 0 1 0 34.160819-22.381226c-0.58898-0.942367-63.256413-100.36213-10.13045-168.212585 29.448982-37.459105 34.514207-84.695272 14.842287-136.525481a247.371448 247.371448 0 0 0-36.987921-64.669964 20.378696 20.378696 0 0 0-31.215921 26.0329c0.706776 0.824571 70.677557 86.815599 21.321063 149.954216-70.677557 90.702864 4.711837 210.383527 8.010123 215.448752z" fill="#e6e6e6" p-id="27129"></path><path d="M1166.179685 859.910273h-42.995514a504.991142 504.991142 0 0 0-459.404118-481.903141v-20.260899a85.166456 85.166456 0 0 0-43.937881-158.199931h-1.884735a85.166456 85.166456 0 0 0-43.937881 158.199931v20.732083A504.991142 504.991142 0 0 0 113.67307 859.910273H70.677557a67.614863 67.614863 0 0 0-67.732659 68.086046v25.44392A67.614863 67.614863 0 0 0 70.677557 1021.055102h1095.502128a67.614863 67.614863 0 0 0 67.614862-67.614863v-25.44392A67.614863 67.614863 0 0 0 1166.179685 859.910273zM572.959393 284.830553a44.526861 44.526861 0 0 1 44.52686-44.52686h1.884735a44.409065 44.409065 0 0 1 16.138042 85.873231 20.378696 20.378696 0 0 0-12.957552 18.965144V376.946969h-8.363511v-31.804901A20.378696 20.378696 0 0 0 600.759232 326.29472a44.291269 44.291269 0 0 1-28.388819-41.346371z m620.195559 668.609686A26.857472 26.857472 0 0 1 1166.179685 980.297711H70.677557a26.857472 26.857472 0 0 1-26.857472-26.857472v-25.44392A26.857472 26.857472 0 0 1 70.677557 901.138847h764.848959a20.378696 20.378696 0 0 0 0-40.757391H154.430461a463.998159 463.998159 0 0 1 461.171057-443.030484h5.654205A463.998159 463.998159 0 0 1 1082.308984 859.910273h-115.086621a20.378696 20.378696 0 0 0 0 40.757391H1166.179685a26.857472 26.857472 0 0 1 26.857471 26.857471v25.443921z" fill="#e6e6e6" p-id="27130"></path></svg>