<?xml version="1.0" standalone="no"?><!DOCTYPE svg PUBLIC "-//W3C//DTD SVG 1.1//EN" "http://www.w3.org/Graphics/SVG/1.1/DTD/svg11.dtd"><svg t="1525723988179" class="icon" style="" viewBox="0 0 1024 1024" version="1.1" xmlns="http://www.w3.org/2000/svg" p-id="23919" xmlns:xlink="http://www.w3.org/1999/xlink" width="48" height="48"><defs><style type="text/css"></style></defs><path d="M950.862259 176.840614c2.711761 6.101975 4.913916 13.223163 6.608512 21.361517 1.694595 8.140401 2.539846 16.622586 2.539846 25.431206 0 8.81476-1.689479 17.640776-5.077646 26.481117-3.388167 8.835226-8.815783 17.311271-16.283871 25.431206-8.138354 8.138354-15.433504 15.260565-21.883403 21.361517-6.443759 6.101975-12.050454 11.526521-16.799618 16.283871-5.431709 5.425569-10.519588 10.181897-15.274892 14.261819L694.380794 137.143497c8.138354-7.469112 17.808598-16.45681 29.012777-26.962072 11.20111-10.509355 20.526499-18.823718 27.972075-24.944112 9.509585-7.470135 19.34458-12.725836 29.504988-15.763009 10.160407-3.042289 20.168342-4.39817 30.021757-4.069688 9.858532 0.323365 19.354813 1.853208 28.498054 4.590551 9.137101 2.732228 17.108656 5.78475 23.901363 9.147334 14.240329 7.469112 30.012547 20.526499 47.320749 39.176255 17.302061 18.648732 30.694069 38.157042 40.185234 58.519811h0.064468v0.002047z m-792.765545 496.616638c4.079922-4.079922 13.579273-13.749142 28.491915-29.014824 14.917758-15.260565 33.5757-34.082236 55.982012-56.469106l375.509373-375.504256 190.310393 191.317327-218.807424 218.807424-81.413218 82.421175c-27.136034 26.465768-51.55826 50.714032-73.268724 72.752977-21.714558 22.032806-39.687908 40.185234-53.928237 54.443983-14.241352 14.266935-22.719444 22.406313-25.436322 24.424273-6.792707 6.101975-14.59951 12.551874-23.415292 19.34458-8.80862 6.7968-17.97335 12.223393-27.482935 16.282848-9.511631 4.756327-23.414269 10.519588-41.715077 17.291828s-37.471426 13.381775-57.511855 19.831675c-20.034289 6.448876-39.031968 12.050454-56.984852 16.804734-17.958 4.755304-31.348985 7.801686-40.190351 9.147334-18.321274 2.043542-30.535457-0.670266-36.632315-8.138354-6.099928-7.469112-7.795547-20.014846-5.082762-37.645389 1.367137-9.509585 4.591575-23.25054 9.674337-41.227983a3936.568894 3936.568894 0 0 1 16.278755-55.982012c5.779633-19.339464 11.378142-37.153178 16.804734-53.43705 5.425569-16.282848 9.833973-27.473725 13.222139-33.574676 4.079922-9.506515 8.661264-18.161638 13.738909-25.952069 5.082762-7.791453 12.376888-16.447601 21.883403-25.953092l-0.026606 0.028653zM464.286302 896.036583c0 30.841426 25.001417 55.842843 55.842842 55.842843S575.971987 926.878009 575.971987 896.036583s-25.001417-55.842843-55.842843-55.842842c-30.840402 0-55.842843 25.001417-55.842842 55.842842zM625.339348 896.036583c0 30.841426 25.001417 55.842843 55.842842 55.842843s55.842843-25.001417 55.842843-55.842843-25.001417-55.842843-55.842843-55.842842c-30.840402 0-55.842843 25.001417-55.842842 55.842842zM786.393417 896.036583c0 30.841426 25.001417 55.842843 55.842843 55.842843s55.842843-25.001417 55.842842-55.842843-25.001417-55.842843-55.842842-55.842842-55.842843 25.001417-55.842843 55.842842z" fill="#e6e6e6" p-id="23920"></path></svg>